# xmcd
# 
# Track frame offsets:
#	150
#	11156
#	19543
#	31509
#	47831
#	58091
#	74579
#	86299
#	98381
#	106754
#	118889
#	131083
#
# Disc length: 1922 seconds
#
# Revision: 1
# Processed by: cddbd v1.4PL0 Copyright (c) Steve Scherf et al.
# Submitted via: Audio-CD-Archiv 2.10.438
#
DISCID=9207800c
DTITLE=The Platters - Red Sails In The Sunset
DYEAR=1900
DGENRE=blues
TTITLE0=Red Sails In The Sunset
TTITLE1=Sayanora
TTITLE2=Why Do You wanna make Me Blue
TTITLE3=Uncle sam Ain't No Woman
TTITLE4=If You Need me
TTITLE5=Delilah
TTITLE6=Smoke Gets In Your Eyes
TTITLE7=Catch The Wind
TTITLE8=We Ain't What We Was
TTITLE9=Try'n Understand
TTITLE10=Get A Hold Of Yourself
TTITLE11=Pledging My Love
EXTD=
EXTT0=
EXTT1=
EXTT2=
EXTT3=
EXTT4=
EXTT5=
EXTT6=
EXTT7=
EXTT8=
EXTT9=
EXTT10=
EXTT11=
PLAYORDER=
